
  
<svg width="28" height="32" viewBox="0 0 28 32" fill="none" xmlns="http://www.w3.org/2000/svg">
<path d="M27.9529 9.41239C27.9526 8.87578 27.8397 8.4016 27.6112 7.99464C27.3867 7.59446 27.0506 7.25905 26.5998 6.99385C22.8783 4.81418 19.1532 2.64118 15.4329 0.459287C14.43 -0.128876 13.4575 -0.107434 12.462 0.489173C10.9807 1.37653 3.56453 5.69243 1.35461 6.99263C0.4445 7.5278 0.00164063 8.34683 0.00142188 9.41139C0 13.7948 0.00142188 18.1782 0 22.5617C0.00021875 23.0866 0.108391 23.5515 0.326812 23.9524C0.551359 24.3647 0.892172 24.7093 1.35341 24.9805C3.56344 26.2807 10.9806 30.5963 12.4615 31.4838C13.4575 32.0808 14.43 32.1021 15.4333 31.5137C19.1536 29.3317 22.879 27.1588 26.601 24.9792C27.0622 24.7081 27.403 24.3632 27.6276 23.9513C27.8457 23.5504 27.9541 23.0855 27.9543 22.5605C27.9543 22.5605 27.9543 13.796 27.9529 9.41239" fill="#5C8DBC"/>
<path d="M14.0199 15.9438L0.326813 23.9524C0.55136 24.3647 0.892172 24.7093 1.35341 24.9805C3.56344 26.2807 10.9806 30.5963 12.4615 31.4839C13.4575 32.0808 14.43 32.1021 15.4333 31.5137C19.1536 29.3317 22.879 27.1588 26.601 24.9792C27.0622 24.7081 27.403 24.3632 27.6276 23.9513L14.0199 15.9438" fill="#1A4674"/>
<path d="M9.96417 18.3161C10.761 19.729 12.2589 20.682 13.9771 20.682C15.706 20.682 17.2125 19.7169 18.0052 18.2888L14.0199 15.9438L9.96417 18.3161" fill="#1A4674"/>
<path d="M27.9528 9.41239C27.9526 8.87578 27.8396 8.40161 27.6112 7.99465L14.0199 15.9438L27.6276 23.9513C27.8457 23.5504 27.9541 23.0855 27.9543 22.5605C27.9543 22.5605 27.9543 13.796 27.9528 9.41239" fill="#1B598E"/>
<path d="M27.2046 16.5162H26.1413V17.5966H25.0777V16.5162H24.0145V15.4362H25.0777V14.3561H26.1413V15.4362H27.2046V16.5162ZM23.3245 16.5162H22.2613V17.5966H21.198V16.5162H20.1346V15.4362H21.198V14.3561H22.2613V15.4362H23.3245V16.5162Z" fill="white"/>
<path d="M18.0052 18.2888C17.2125 19.7169 15.706 20.682 13.9771 20.682C12.2589 20.682 10.761 19.729 9.96417 18.3161C9.5639 17.6071 9.35369 16.8038 9.35452 15.9865C9.35452 13.3933 11.4242 11.2911 13.9771 11.2911C15.6844 11.2911 17.1744 12.2322 17.9751 13.6307L22.0156 11.2674C20.4096 8.45149 17.4113 6.55701 13.9771 6.55701C8.85008 6.55701 4.69394 10.7788 4.69394 15.9865C4.69394 17.695 5.14139 19.2972 5.92342 20.6792C7.52533 23.51 10.5322 25.4161 13.9771 25.4161C17.4285 25.4161 20.44 23.5023 22.0396 20.6632L18.0052 18.2888Z" fill="white"/>
</svg>