<svg width="32" height="32" viewBox="0 0 32 32" fill="none" xmlns="http://www.w3.org/2000/svg">
<path d="M29.375 8.375L29.45 8.325C29.3 8.05 29.075 7.8 28.85 7.675L16.775 0.725C16.575 0.6 16.3 0.55 16 0.55C15.7 0.55 15.425 0.625 15.225 0.725L3.225 7.7C2.8 7.95 2.5 8.575 2.5 9.05V22.975C2.5 23.25 2.55 23.55 2.725 23.825L2.675 23.85C2.8 24.05 2.975 24.225 3.15 24.325L15.2 31.3C15.4 31.425 15.675 31.475 15.975 31.475C16.275 31.475 16.55 31.4 16.75 31.3L28.75 24.325C29.175 24.075 29.475 23.45 29.475 22.975V9.025C29.5 8.825 29.475 8.6 29.375 8.375V8.375ZM16 22.125C18.275 22.125 20.275 20.875 21.325 19.025L24.55 20.925C22.85 23.875 19.65 25.875 16 25.875C10.55 25.875 6.125 21.45 6.125 16C6.125 10.55 10.55 6.125 16 6.125C19.675 6.125 22.875 8.15 24.575 11.125L21.325 13C20.275 11.125 18.275 9.875 16 9.875C12.625 9.875 9.875 12.625 9.875 16C9.875 19.375 12.625 22.125 16 22.125V22.125Z" fill="#03599C"/>
</svg>