<svg width="33" height="33" viewBox="0 0 33 33" fill="none" xmlns="http://www.w3.org/2000/svg">
<path d="M7.1811 29.9975L5.10751 6.73999H27.8925L25.8168 29.9939L16.4861 32.5805L7.1811 29.9975Z" fill="#E44D26"/>
<path d="M16.5 30.6034L24.0395 28.513L25.8135 8.64188H16.5V30.6034Z" fill="#F16529"/>
<path d="M16.5 17.2678H12.7254L12.465 14.3465H16.5V11.4941H9.3475L9.41557 12.2595L10.1168 20.1199H16.5V17.2678ZM16.5 24.6755L16.4874 24.6788L13.3109 23.8208L13.1077 21.5462H10.2442L10.6438 26.0249L16.4868 27.647L16.5 27.6432V24.6755Z" fill="#EBEBEB"/>
<path d="M7.22751 0.419461H8.67693V1.85187H10.0031V0.419461H11.4528V4.75638H10.0031V3.30412H8.67719V4.75638H7.22751V0.419461V0.419461ZM13.3588 1.8578H12.0826V0.419461H16.0852V1.8578H14.8085V4.75638H13.3588V1.8578V1.8578ZM16.7204 0.419461H18.2317L19.1617 1.94339L20.0906 0.419461H21.6026V4.75638H20.1586V2.60674L19.1617 4.14872H19.1364L18.1387 2.60674V4.75638H16.7202V0.419461H16.7204ZM22.3242 0.419461H23.7742V3.32295H25.8127V4.75664H22.3242V0.419461V0.419461Z" fill="black"/>
<path d="M16.4902 17.2678V20.1199H20.0026L19.6716 23.8193L16.4902 24.6781V27.6455L22.3379 26.0249L22.3807 25.5428L23.051 18.0335L23.1206 17.2678H22.3518H16.4902ZM16.4902 11.4941V14.3465H23.3802L23.4372 13.7053L23.5674 12.2595L23.6357 11.4941H16.4902Z" fill="white"/>
</svg>