<svg width="31" height="31" viewBox="0 0 31 31" fill="none" xmlns="http://www.w3.org/2000/svg">
<path d="M30.9909 0H0.00908203C0.00406616 0 0 0.00406616 0 0.00908203V30.9909C0 30.9959 0.00406616 31 0.00908203 31H30.9909C30.9959 31 31 30.9959 31 30.9909V0.00908203C31 0.00406616 30.9959 0 30.9909 0Z" fill="#F7DF1E"/>
<path d="M19.6172 22.4023C20.2227 23.4316 21.0703 24.1582 22.4629 24.1582C23.6738 24.1582 24.4609 23.5527 24.4609 22.7051C24.4609 21.7363 23.6738 21.373 22.3418 20.7676L21.6152 20.4648C19.4961 19.5566 18.1035 18.4668 18.1035 16.1055C18.1035 13.9258 19.7383 12.2305 22.3418 12.2305C24.2188 12.2305 25.5508 12.8965 26.459 14.5918L24.2188 16.0449C23.7344 15.1367 23.1895 14.7734 22.3418 14.7734C21.4941 14.7734 20.9492 15.3184 20.9492 16.0449C20.9492 16.8926 21.4941 17.2559 22.7656 17.8008L23.4922 18.1035C25.9746 19.1934 27.3672 20.2227 27.3672 22.7051C27.3672 25.3086 25.3086 26.7617 22.5234 26.7617C19.7988 26.7617 18.043 25.4902 17.1953 23.7949L19.6172 22.4023ZM9.32422 22.6445C9.80859 23.4316 10.1719 24.1582 11.2012 24.1582C12.1699 24.1582 12.7754 23.7949 12.7754 22.3418V12.291H15.6816V22.2207C15.6816 25.248 13.9258 26.5801 11.3223 26.5801C8.96094 26.5801 7.62891 25.3691 6.96289 23.916L9.32422 22.6445Z" fill="black"/>
</svg>