<svg width="29" height="29" viewBox="0 0 29 29" fill="none" xmlns="http://www.w3.org/2000/svg">
<path d="M14.3758 0.00818825C7.03229 0.00818825 7.49081 3.20558 7.49081 3.20558L7.49896 6.51818H14.5068V7.5127H4.71556C4.71556 7.5127 0.0164185 6.97763 0.0164185 14.417C0.0164185 21.8566 4.11795 21.5927 4.11795 21.5927H6.56572V18.1405C6.56572 18.1405 6.43376 14.0225 10.6018 14.0225H17.5523C17.5523 14.0225 21.4573 14.0858 21.4573 10.2332V3.86325C21.4573 3.86325 22.0504 0.00818825 14.3758 0.00818825ZM10.5117 2.23584C10.6773 2.23569 10.8413 2.26833 10.9944 2.33189C11.1474 2.39545 11.2864 2.48868 11.4035 2.60624C11.5206 2.72381 11.6135 2.86341 11.6768 3.01704C11.7401 3.17068 11.7726 3.33534 11.7724 3.50161C11.7726 3.66787 11.7401 3.83253 11.6768 3.98617C11.6135 4.13981 11.5206 4.2794 11.4035 4.39697C11.2864 4.51454 11.1474 4.60777 10.9944 4.67133C10.8413 4.73488 10.6773 4.76752 10.5117 4.76737C10.3461 4.76752 10.1821 4.73488 10.0291 4.67133C9.87608 4.60777 9.73705 4.51454 9.61995 4.39697C9.50285 4.2794 9.41 4.13981 9.34669 3.98617C9.28339 3.83253 9.25088 3.66787 9.25103 3.50161C9.25088 3.33534 9.28339 3.17068 9.34669 3.01704C9.41 2.86341 9.50285 2.72381 9.61995 2.60624C9.73705 2.48868 9.87608 2.39545 10.0291 2.33189C10.1821 2.26833 10.3461 2.23569 10.5117 2.23584V2.23584Z" fill="url(#paint0_linear_6_110)"/>
<path d="M14.5844 28.9006C21.9279 28.9006 21.4694 25.7032 21.4694 25.7032L21.4613 22.3907H14.4533V21.3962H24.2445C24.2445 21.3962 28.9437 21.9313 28.9437 14.4917C28.9437 7.05223 24.8422 7.31607 24.8422 7.31607H22.3944V10.7682C22.3944 10.7682 22.5263 14.8862 18.3583 14.8862H11.4078C11.4078 14.8862 7.50281 14.8229 7.50281 18.6755V25.0457C7.50281 25.0457 6.90984 28.9006 14.5843 28.9006H14.5844ZM18.4485 26.6732C18.2829 26.6733 18.1189 26.6407 17.9659 26.5771C17.8128 26.5136 17.6738 26.4203 17.5567 26.3028C17.4396 26.1852 17.3468 26.0456 17.2835 25.892C17.2201 25.7383 17.1876 25.5737 17.1878 25.4074C17.1876 25.2411 17.2201 25.0765 17.2834 24.9228C17.3467 24.7692 17.4396 24.6296 17.5567 24.512C17.6738 24.3944 17.8128 24.3012 17.9658 24.2376C18.1189 24.174 18.2829 24.1414 18.4485 24.1415C18.6141 24.1414 18.7781 24.174 18.9311 24.2376C19.0841 24.3011 19.2232 24.3944 19.3403 24.5119C19.4574 24.6295 19.5502 24.7691 19.6135 24.9227C19.6768 25.0764 19.7093 25.241 19.7092 25.4073C19.7093 25.5736 19.6768 25.7382 19.6135 25.8919C19.5502 26.0455 19.4574 26.1851 19.3403 26.3027C19.2232 26.4202 19.0841 26.5135 18.9311 26.577C18.7781 26.6406 18.6141 26.6732 18.4485 26.6731V26.6732Z" fill="url(#paint1_linear_6_110)"/>
<defs>
<linearGradient id="paint0_linear_6_110" x1="2.79632" y1="2.60689" x2="17.1887" y2="16.7987" gradientUnits="userSpaceOnUse">
<stop stop-color="#387EB8"/>
<stop offset="1" stop-color="#366994"/>
</linearGradient>
<linearGradient id="paint1_linear_6_110" x1="11.5954" y1="11.757" x2="27.0483" y2="26.3067" gradientUnits="userSpaceOnUse">
<stop stop-color="#FFE052"/>
<stop offset="1" stop-color="#FFC331"/>
</linearGradient>
</defs>
</svg>